<mxfile host="app.diagrams.net" agent="Mozilla/5.0 (Windows NT 10.0; Win64; x64) AppleWebKit/537.36 (KHTML, like Gecko) Chrome/136.0.0.0 Safari/537.36 Edg/136.0.0.0" version="26.3.0">
  <diagram name="第 1 页" id="79MGuGvK0-20gmR4_mki">
    <mxGraphModel dx="2325" dy="1040" grid="1" gridSize="10" guides="1" tooltips="1" connect="1" arrows="1" fold="1" page="1" pageScale="1" pageWidth="827" pageHeight="1169" math="0" shadow="0">
      <root>
        <mxCell id="0" />
        <mxCell id="1" parent="0" />
        <mxCell id="V7w_PPkg34LAz0NQ4yCN-16" value="2x" style="shape=flexArrow;endArrow=classic;html=1;rounded=0;endWidth=36.908442330558856;endSize=8.16551724137931;width=34.48275862068966;" edge="1" parent="1">
          <mxGeometry width="50" height="50" relative="1" as="geometry">
            <mxPoint x="250" y="239.66" as="sourcePoint" />
            <mxPoint x="330" y="239.66" as="targetPoint" />
          </mxGeometry>
        </mxCell>
        <mxCell id="V7w_PPkg34LAz0NQ4yCN-38" value="" style="group" vertex="1" connectable="0" parent="1">
          <mxGeometry x="320" y="39.31" width="440" height="400.69" as="geometry" />
        </mxCell>
        <mxCell id="V7w_PPkg34LAz0NQ4yCN-9" value="" style="whiteSpace=wrap;html=1;aspect=fixed;fillColor=none;" vertex="1" parent="V7w_PPkg34LAz0NQ4yCN-38">
          <mxGeometry x="40" y="0.6899999999999977" width="400" height="400" as="geometry" />
        </mxCell>
        <mxCell id="V7w_PPkg34LAz0NQ4yCN-8" value="" style="whiteSpace=wrap;html=1;aspect=fixed;fillColor=none;" vertex="1" parent="V7w_PPkg34LAz0NQ4yCN-38">
          <mxGeometry x="120" y="80.69" width="240" height="240" as="geometry" />
        </mxCell>
        <mxCell id="V7w_PPkg34LAz0NQ4yCN-7" value="" style="whiteSpace=wrap;html=1;aspect=fixed;" vertex="1" parent="V7w_PPkg34LAz0NQ4yCN-38">
          <mxGeometry x="200" y="160.69" width="80" height="80" as="geometry" />
        </mxCell>
        <mxCell id="V7w_PPkg34LAz0NQ4yCN-17" value="10" style="endArrow=classic;startArrow=classic;html=1;rounded=0;strokeColor=#7F7F7F;fontColor=#7F7F7F;" edge="1" parent="V7w_PPkg34LAz0NQ4yCN-38">
          <mxGeometry width="50" height="50" relative="1" as="geometry">
            <mxPoint x="20" y="400.69" as="sourcePoint" />
            <mxPoint x="20" y="0.6899999999999977" as="targetPoint" />
          </mxGeometry>
        </mxCell>
        <mxCell id="V7w_PPkg34LAz0NQ4yCN-19" value="2" style="endArrow=classic;startArrow=classic;html=1;rounded=0;exitX=0.1;exitY=0.2;exitDx=0;exitDy=0;exitPerimeter=0;strokeColor=#7F7F7F;fontColor=#7F7F7F;" edge="1" parent="V7w_PPkg34LAz0NQ4yCN-38" source="V7w_PPkg34LAz0NQ4yCN-9">
          <mxGeometry width="50" height="50" relative="1" as="geometry">
            <mxPoint x="80" y="40.689999999999884" as="sourcePoint" />
            <mxPoint x="80" y="0.6899999999999977" as="targetPoint" />
            <mxPoint as="offset" />
          </mxGeometry>
        </mxCell>
        <mxCell id="V7w_PPkg34LAz0NQ4yCN-20" value="6" style="endArrow=classic;startArrow=classic;html=1;rounded=0;exitX=0.1;exitY=0.8;exitDx=0;exitDy=0;exitPerimeter=0;strokeColor=#7F7F7F;fontColor=#7F7F7F;" edge="1" parent="V7w_PPkg34LAz0NQ4yCN-38" source="V7w_PPkg34LAz0NQ4yCN-9">
          <mxGeometry width="50" height="50" relative="1" as="geometry">
            <mxPoint x="80" y="200.69" as="sourcePoint" />
            <mxPoint x="80" y="80.69" as="targetPoint" />
          </mxGeometry>
        </mxCell>
        <mxCell id="V7w_PPkg34LAz0NQ4yCN-21" value="2" style="endArrow=classic;startArrow=classic;html=1;rounded=0;exitX=0.1;exitY=0.2;exitDx=0;exitDy=0;exitPerimeter=0;strokeColor=#7F7F7F;fontColor=#7F7F7F;" edge="1" parent="V7w_PPkg34LAz0NQ4yCN-38">
          <mxGeometry width="50" height="50" relative="1" as="geometry">
            <mxPoint x="80" y="400.69" as="sourcePoint" />
            <mxPoint x="80" y="320.69" as="targetPoint" />
            <mxPoint as="offset" />
          </mxGeometry>
        </mxCell>
        <mxCell id="V7w_PPkg34LAz0NQ4yCN-28" value="2" style="endArrow=classic;startArrow=classic;html=1;rounded=0;exitX=0.1;exitY=0.2;exitDx=0;exitDy=0;exitPerimeter=0;strokeColor=#7F7F7F;fontColor=#7F7F7F;" edge="1" parent="V7w_PPkg34LAz0NQ4yCN-38">
          <mxGeometry width="50" height="50" relative="1" as="geometry">
            <mxPoint x="160" y="160.69" as="sourcePoint" />
            <mxPoint x="160" y="80.69" as="targetPoint" />
            <mxPoint as="offset" />
          </mxGeometry>
        </mxCell>
        <mxCell id="V7w_PPkg34LAz0NQ4yCN-29" value="2" style="endArrow=classic;startArrow=classic;html=1;rounded=0;exitX=0.1;exitY=0.2;exitDx=0;exitDy=0;exitPerimeter=0;strokeColor=#7F7F7F;fontColor=#7F7F7F;" edge="1" parent="V7w_PPkg34LAz0NQ4yCN-38">
          <mxGeometry width="50" height="50" relative="1" as="geometry">
            <mxPoint x="160" y="320.69" as="sourcePoint" />
            <mxPoint x="160" y="240.69" as="targetPoint" />
            <mxPoint as="offset" />
          </mxGeometry>
        </mxCell>
        <mxCell id="V7w_PPkg34LAz0NQ4yCN-30" value="2" style="endArrow=classic;startArrow=classic;html=1;rounded=0;exitX=0.1;exitY=0.2;exitDx=0;exitDy=0;exitPerimeter=0;strokeColor=#7F7F7F;fontColor=#7F7F7F;" edge="1" parent="V7w_PPkg34LAz0NQ4yCN-38">
          <mxGeometry width="50" height="50" relative="1" as="geometry">
            <mxPoint x="160" y="240.69" as="sourcePoint" />
            <mxPoint x="160" y="160.69" as="targetPoint" />
            <mxPoint as="offset" />
          </mxGeometry>
        </mxCell>
        <mxCell id="V7w_PPkg34LAz0NQ4yCN-31" value="" style="endArrow=none;dashed=1;html=1;rounded=0;entryX=0;entryY=0;entryDx=0;entryDy=0;strokeColor=#7F7F7F;fontColor=#7F7F7F;" edge="1" parent="V7w_PPkg34LAz0NQ4yCN-38">
          <mxGeometry width="50" height="50" relative="1" as="geometry">
            <mxPoint as="sourcePoint" />
            <mxPoint x="40" as="targetPoint" />
          </mxGeometry>
        </mxCell>
        <mxCell id="V7w_PPkg34LAz0NQ4yCN-32" value="" style="endArrow=none;dashed=1;html=1;rounded=0;entryX=0;entryY=0;entryDx=0;entryDy=0;strokeColor=#7F7F7F;fontColor=#7F7F7F;" edge="1" parent="V7w_PPkg34LAz0NQ4yCN-38">
          <mxGeometry width="50" height="50" relative="1" as="geometry">
            <mxPoint y="400.69" as="sourcePoint" />
            <mxPoint x="40" y="400.69" as="targetPoint" />
          </mxGeometry>
        </mxCell>
        <mxCell id="V7w_PPkg34LAz0NQ4yCN-33" value="" style="endArrow=none;dashed=1;html=1;rounded=0;entryX=0;entryY=0;entryDx=0;entryDy=0;strokeColor=#7F7F7F;fontColor=#7F7F7F;" edge="1" parent="V7w_PPkg34LAz0NQ4yCN-38">
          <mxGeometry width="50" height="50" relative="1" as="geometry">
            <mxPoint x="60" y="320.69" as="sourcePoint" />
            <mxPoint x="100" y="320.69" as="targetPoint" />
          </mxGeometry>
        </mxCell>
        <mxCell id="V7w_PPkg34LAz0NQ4yCN-34" value="" style="endArrow=none;dashed=1;html=1;rounded=0;entryX=0;entryY=0;entryDx=0;entryDy=0;strokeColor=#7F7F7F;fontColor=#7F7F7F;" edge="1" parent="V7w_PPkg34LAz0NQ4yCN-38">
          <mxGeometry width="50" height="50" relative="1" as="geometry">
            <mxPoint x="60" y="80" as="sourcePoint" />
            <mxPoint x="100" y="80" as="targetPoint" />
          </mxGeometry>
        </mxCell>
        <mxCell id="V7w_PPkg34LAz0NQ4yCN-35" value="" style="endArrow=none;dashed=1;html=1;rounded=0;entryX=0;entryY=0;entryDx=0;entryDy=0;strokeColor=#7F7F7F;fontColor=#7F7F7F;" edge="1" parent="V7w_PPkg34LAz0NQ4yCN-38">
          <mxGeometry width="50" height="50" relative="1" as="geometry">
            <mxPoint x="140" y="160" as="sourcePoint" />
            <mxPoint x="180" y="160" as="targetPoint" />
          </mxGeometry>
        </mxCell>
        <mxCell id="V7w_PPkg34LAz0NQ4yCN-36" value="" style="endArrow=none;dashed=1;html=1;rounded=0;entryX=0;entryY=0;entryDx=0;entryDy=0;strokeColor=#7F7F7F;fontColor=#7F7F7F;" edge="1" parent="V7w_PPkg34LAz0NQ4yCN-38">
          <mxGeometry width="50" height="50" relative="1" as="geometry">
            <mxPoint x="140" y="240.69" as="sourcePoint" />
            <mxPoint x="180" y="240.69" as="targetPoint" />
          </mxGeometry>
        </mxCell>
        <mxCell id="V7w_PPkg34LAz0NQ4yCN-61" value="" style="group" vertex="1" connectable="0" parent="1">
          <mxGeometry x="-100" y="680" width="200" height="200" as="geometry" />
        </mxCell>
        <mxCell id="V7w_PPkg34LAz0NQ4yCN-42" value="" style="whiteSpace=wrap;html=1;aspect=fixed;fillColor=none;container=0;" vertex="1" parent="V7w_PPkg34LAz0NQ4yCN-61">
          <mxGeometry width="200" height="200" as="geometry" />
        </mxCell>
        <mxCell id="V7w_PPkg34LAz0NQ4yCN-41" value="" style="whiteSpace=wrap;html=1;aspect=fixed;fillColor=none;container=0;" vertex="1" parent="V7w_PPkg34LAz0NQ4yCN-61">
          <mxGeometry x="40" y="40" width="120" height="120" as="geometry" />
        </mxCell>
        <mxCell id="V7w_PPkg34LAz0NQ4yCN-40" value="" style="whiteSpace=wrap;html=1;aspect=fixed;container=0;" vertex="1" parent="V7w_PPkg34LAz0NQ4yCN-61">
          <mxGeometry x="80" y="120" width="40" height="40" as="geometry" />
        </mxCell>
        <mxCell id="V7w_PPkg34LAz0NQ4yCN-69" value="1" style="endArrow=classic;startArrow=classic;html=1;rounded=0;exitX=0.5;exitY=0.6;exitDx=0;exitDy=0;exitPerimeter=0;strokeColor=#7F7F7F;fontColor=#7F7F7F;" edge="1" parent="V7w_PPkg34LAz0NQ4yCN-61">
          <mxGeometry width="50" height="50" relative="1" as="geometry">
            <mxPoint x="20" y="39.999999999999886" as="sourcePoint" />
            <mxPoint x="20" as="targetPoint" />
            <mxPoint as="offset" />
          </mxGeometry>
        </mxCell>
        <mxCell id="V7w_PPkg34LAz0NQ4yCN-70" value="3" style="endArrow=classic;startArrow=classic;html=1;rounded=0;strokeColor=#7F7F7F;fontColor=#7F7F7F;" edge="1" parent="V7w_PPkg34LAz0NQ4yCN-61">
          <mxGeometry width="50" height="50" relative="1" as="geometry">
            <mxPoint x="20" y="160" as="sourcePoint" />
            <mxPoint x="20" y="40" as="targetPoint" />
          </mxGeometry>
        </mxCell>
        <mxCell id="V7w_PPkg34LAz0NQ4yCN-71" value="1" style="endArrow=classic;startArrow=classic;html=1;rounded=0;exitX=0.5;exitY=0.6;exitDx=0;exitDy=0;exitPerimeter=0;strokeColor=#7F7F7F;fontColor=#7F7F7F;" edge="1" parent="V7w_PPkg34LAz0NQ4yCN-61">
          <mxGeometry width="50" height="50" relative="1" as="geometry">
            <mxPoint x="20" y="199.9999999999999" as="sourcePoint" />
            <mxPoint x="20" y="160" as="targetPoint" />
            <mxPoint as="offset" />
          </mxGeometry>
        </mxCell>
        <mxCell id="V7w_PPkg34LAz0NQ4yCN-72" value="" style="endArrow=none;dashed=1;html=1;rounded=0;entryX=0;entryY=0;entryDx=0;entryDy=0;strokeColor=#7F7F7F;" edge="1" parent="V7w_PPkg34LAz0NQ4yCN-61">
          <mxGeometry width="50" height="50" relative="1" as="geometry">
            <mxPoint y="40" as="sourcePoint" />
            <mxPoint x="40" y="40" as="targetPoint" />
          </mxGeometry>
        </mxCell>
        <mxCell id="V7w_PPkg34LAz0NQ4yCN-73" value="" style="endArrow=none;dashed=1;html=1;rounded=0;entryX=0;entryY=0;entryDx=0;entryDy=0;strokeColor=#7F7F7F;" edge="1" parent="V7w_PPkg34LAz0NQ4yCN-61">
          <mxGeometry width="50" height="50" relative="1" as="geometry">
            <mxPoint y="159.30999999999995" as="sourcePoint" />
            <mxPoint x="40" y="159.30999999999995" as="targetPoint" />
          </mxGeometry>
        </mxCell>
        <mxCell id="V7w_PPkg34LAz0NQ4yCN-75" value="2" style="endArrow=classic;startArrow=classic;html=1;rounded=0;fontColor=#7F7F7F;strokeColor=#7F7F7F;" edge="1" parent="V7w_PPkg34LAz0NQ4yCN-61">
          <mxGeometry width="50" height="50" relative="1" as="geometry">
            <mxPoint x="60" y="120" as="sourcePoint" />
            <mxPoint x="60" y="40" as="targetPoint" />
            <mxPoint as="offset" />
          </mxGeometry>
        </mxCell>
        <mxCell id="V7w_PPkg34LAz0NQ4yCN-76" value="1" style="endArrow=classic;startArrow=classic;html=1;rounded=0;exitX=0.5;exitY=0.6;exitDx=0;exitDy=0;exitPerimeter=0;fontColor=#7F7F7F;strokeColor=#7F7F7F;" edge="1" parent="V7w_PPkg34LAz0NQ4yCN-61">
          <mxGeometry width="50" height="50" relative="1" as="geometry">
            <mxPoint x="60" y="159.9999999999999" as="sourcePoint" />
            <mxPoint x="60" y="120" as="targetPoint" />
            <mxPoint as="offset" />
          </mxGeometry>
        </mxCell>
        <mxCell id="V7w_PPkg34LAz0NQ4yCN-78" value="" style="endArrow=none;dashed=1;html=1;rounded=0;entryX=0;entryY=0;entryDx=0;entryDy=0;fontColor=#7F7F7F;strokeColor=#7F7F7F;" edge="1" parent="V7w_PPkg34LAz0NQ4yCN-61">
          <mxGeometry width="50" height="50" relative="1" as="geometry">
            <mxPoint x="40" y="120" as="sourcePoint" />
            <mxPoint x="80" y="120" as="targetPoint" />
          </mxGeometry>
        </mxCell>
        <mxCell id="V7w_PPkg34LAz0NQ4yCN-62" value="" style="group" vertex="1" connectable="0" parent="1">
          <mxGeometry x="240" y="480" width="600" height="600" as="geometry" />
        </mxCell>
        <mxCell id="V7w_PPkg34LAz0NQ4yCN-63" value="" style="whiteSpace=wrap;html=1;aspect=fixed;fillColor=none;container=0;" vertex="1" parent="V7w_PPkg34LAz0NQ4yCN-62">
          <mxGeometry width="600" height="600" as="geometry" />
        </mxCell>
        <mxCell id="V7w_PPkg34LAz0NQ4yCN-64" value="" style="whiteSpace=wrap;html=1;aspect=fixed;fillColor=none;container=0;" vertex="1" parent="V7w_PPkg34LAz0NQ4yCN-62">
          <mxGeometry x="120" y="120" width="360" height="360" as="geometry" />
        </mxCell>
        <mxCell id="V7w_PPkg34LAz0NQ4yCN-65" value="" style="whiteSpace=wrap;html=1;aspect=fixed;container=0;" vertex="1" parent="V7w_PPkg34LAz0NQ4yCN-62">
          <mxGeometry x="240" y="360" width="120" height="120" as="geometry" />
        </mxCell>
        <mxCell id="V7w_PPkg34LAz0NQ4yCN-83" value="" style="endArrow=none;dashed=1;html=1;rounded=0;entryX=0;entryY=0;entryDx=0;entryDy=0;strokeColor=#7F7F7F;" edge="1" parent="V7w_PPkg34LAz0NQ4yCN-62">
          <mxGeometry width="50" height="50" relative="1" as="geometry">
            <mxPoint x="40" y="120" as="sourcePoint" />
            <mxPoint x="80" y="120" as="targetPoint" />
          </mxGeometry>
        </mxCell>
        <mxCell id="V7w_PPkg34LAz0NQ4yCN-84" value="3" style="endArrow=classic;startArrow=classic;html=1;rounded=0;strokeColor=#7F7F7F;fontColor=#7F7F7F;" edge="1" parent="V7w_PPkg34LAz0NQ4yCN-62">
          <mxGeometry width="50" height="50" relative="1" as="geometry">
            <mxPoint x="60" y="120" as="sourcePoint" />
            <mxPoint x="60" as="targetPoint" />
          </mxGeometry>
        </mxCell>
        <mxCell id="V7w_PPkg34LAz0NQ4yCN-85" value="" style="endArrow=none;dashed=1;html=1;rounded=0;entryX=0;entryY=0;entryDx=0;entryDy=0;strokeColor=#7F7F7F;" edge="1" parent="V7w_PPkg34LAz0NQ4yCN-62">
          <mxGeometry width="50" height="50" relative="1" as="geometry">
            <mxPoint x="40" y="480" as="sourcePoint" />
            <mxPoint x="80" y="480" as="targetPoint" />
          </mxGeometry>
        </mxCell>
        <mxCell id="V7w_PPkg34LAz0NQ4yCN-86" value="3" style="endArrow=classic;startArrow=classic;html=1;rounded=0;strokeColor=#7F7F7F;fontColor=#7F7F7F;" edge="1" parent="V7w_PPkg34LAz0NQ4yCN-62">
          <mxGeometry width="50" height="50" relative="1" as="geometry">
            <mxPoint x="60" y="600" as="sourcePoint" />
            <mxPoint x="60" y="480" as="targetPoint" />
          </mxGeometry>
        </mxCell>
        <mxCell id="V7w_PPkg34LAz0NQ4yCN-87" value="9" style="endArrow=classic;startArrow=classic;html=1;rounded=0;strokeColor=#7F7F7F;fontColor=#7F7F7F;" edge="1" parent="V7w_PPkg34LAz0NQ4yCN-62">
          <mxGeometry width="50" height="50" relative="1" as="geometry">
            <mxPoint x="60" y="480" as="sourcePoint" />
            <mxPoint x="60" y="120" as="targetPoint" />
          </mxGeometry>
        </mxCell>
        <mxCell id="V7w_PPkg34LAz0NQ4yCN-88" value="6" style="endArrow=classic;startArrow=classic;html=1;rounded=0;fontColor=#7F7F7F;strokeColor=#7F7F7F;exitX=0.278;exitY=0.667;exitDx=0;exitDy=0;exitPerimeter=0;" edge="1" parent="V7w_PPkg34LAz0NQ4yCN-62">
          <mxGeometry width="50" height="50" relative="1" as="geometry">
            <mxPoint x="200.07999999999993" y="360.1199999999999" as="sourcePoint" />
            <mxPoint x="200" y="120" as="targetPoint" />
            <mxPoint as="offset" />
          </mxGeometry>
        </mxCell>
        <mxCell id="V7w_PPkg34LAz0NQ4yCN-89" value="" style="endArrow=none;dashed=1;html=1;rounded=0;entryX=0;entryY=0;entryDx=0;entryDy=0;strokeColor=#7F7F7F;" edge="1" parent="V7w_PPkg34LAz0NQ4yCN-62">
          <mxGeometry width="50" height="50" relative="1" as="geometry">
            <mxPoint x="180" y="360" as="sourcePoint" />
            <mxPoint x="220" y="360" as="targetPoint" />
          </mxGeometry>
        </mxCell>
        <mxCell id="V7w_PPkg34LAz0NQ4yCN-91" value="3" style="endArrow=classic;startArrow=classic;html=1;rounded=0;strokeColor=#7F7F7F;fontColor=#7F7F7F;" edge="1" parent="V7w_PPkg34LAz0NQ4yCN-62">
          <mxGeometry width="50" height="50" relative="1" as="geometry">
            <mxPoint x="200" y="480" as="sourcePoint" />
            <mxPoint x="200" y="360" as="targetPoint" />
          </mxGeometry>
        </mxCell>
        <mxCell id="V7w_PPkg34LAz0NQ4yCN-2" value="" style="whiteSpace=wrap;html=1;aspect=fixed;" vertex="1" parent="1">
          <mxGeometry x="120" y="220" width="40" height="40" as="geometry" />
        </mxCell>
        <mxCell id="V7w_PPkg34LAz0NQ4yCN-3" value="" style="whiteSpace=wrap;html=1;aspect=fixed;fillColor=none;" vertex="1" parent="1">
          <mxGeometry x="80" y="180" width="120" height="120" as="geometry" />
        </mxCell>
        <mxCell id="V7w_PPkg34LAz0NQ4yCN-4" value="" style="whiteSpace=wrap;html=1;aspect=fixed;fillColor=none;" vertex="1" parent="1">
          <mxGeometry x="40" y="140" width="200" height="200" as="geometry" />
        </mxCell>
        <mxCell id="V7w_PPkg34LAz0NQ4yCN-5" value="1" style="endArrow=classic;startArrow=classic;html=1;rounded=0;exitX=0.5;exitY=0.6;exitDx=0;exitDy=0;exitPerimeter=0;strokeColor=#7F7F7F;fontColor=#7F7F7F;" edge="1" parent="1">
          <mxGeometry width="50" height="50" relative="1" as="geometry">
            <mxPoint x="60" y="179.9999999999999" as="sourcePoint" />
            <mxPoint x="60" y="140" as="targetPoint" />
            <mxPoint as="offset" />
          </mxGeometry>
        </mxCell>
        <mxCell id="V7w_PPkg34LAz0NQ4yCN-10" value="5" style="endArrow=classic;startArrow=classic;html=1;rounded=0;strokeColor=#7F7F7F;fontColor=#7F7F7F;" edge="1" parent="1">
          <mxGeometry width="50" height="50" relative="1" as="geometry">
            <mxPoint x="20" y="340" as="sourcePoint" />
            <mxPoint x="20" y="140" as="targetPoint" />
          </mxGeometry>
        </mxCell>
        <mxCell id="V7w_PPkg34LAz0NQ4yCN-11" value="3" style="endArrow=classic;startArrow=classic;html=1;rounded=0;strokeColor=#7F7F7F;fontColor=#7F7F7F;" edge="1" parent="1">
          <mxGeometry width="50" height="50" relative="1" as="geometry">
            <mxPoint x="60" y="300" as="sourcePoint" />
            <mxPoint x="60" y="180" as="targetPoint" />
          </mxGeometry>
        </mxCell>
        <mxCell id="V7w_PPkg34LAz0NQ4yCN-12" value="1" style="endArrow=classic;startArrow=classic;html=1;rounded=0;exitX=0.5;exitY=0.6;exitDx=0;exitDy=0;exitPerimeter=0;strokeColor=#7F7F7F;fontColor=#7F7F7F;" edge="1" parent="1">
          <mxGeometry width="50" height="50" relative="1" as="geometry">
            <mxPoint x="60" y="339.9999999999999" as="sourcePoint" />
            <mxPoint x="60" y="300" as="targetPoint" />
            <mxPoint as="offset" />
          </mxGeometry>
        </mxCell>
        <mxCell id="V7w_PPkg34LAz0NQ4yCN-13" value="1" style="endArrow=classic;startArrow=classic;html=1;rounded=0;exitX=0.5;exitY=0.6;exitDx=0;exitDy=0;exitPerimeter=0;fontColor=#7F7F7F;strokeColor=#7F7F7F;" edge="1" parent="1">
          <mxGeometry width="50" height="50" relative="1" as="geometry">
            <mxPoint x="100" y="219.9999999999999" as="sourcePoint" />
            <mxPoint x="100" y="180" as="targetPoint" />
            <mxPoint as="offset" />
          </mxGeometry>
        </mxCell>
        <mxCell id="V7w_PPkg34LAz0NQ4yCN-14" value="1" style="endArrow=classic;startArrow=classic;html=1;rounded=0;exitX=0.5;exitY=0.6;exitDx=0;exitDy=0;exitPerimeter=0;fontColor=#7F7F7F;strokeColor=#7F7F7F;" edge="1" parent="1">
          <mxGeometry width="50" height="50" relative="1" as="geometry">
            <mxPoint x="100" y="259.9999999999999" as="sourcePoint" />
            <mxPoint x="100" y="220" as="targetPoint" />
            <mxPoint as="offset" />
          </mxGeometry>
        </mxCell>
        <mxCell id="V7w_PPkg34LAz0NQ4yCN-15" value="1" style="endArrow=classic;startArrow=classic;html=1;rounded=0;exitX=0.5;exitY=0.6;exitDx=0;exitDy=0;exitPerimeter=0;fontColor=#7F7F7F;strokeColor=#7F7F7F;" edge="1" parent="1">
          <mxGeometry width="50" height="50" relative="1" as="geometry">
            <mxPoint x="100" y="299.9999999999999" as="sourcePoint" />
            <mxPoint x="100" y="260" as="targetPoint" />
            <mxPoint as="offset" />
          </mxGeometry>
        </mxCell>
        <mxCell id="V7w_PPkg34LAz0NQ4yCN-22" value="" style="endArrow=none;dashed=1;html=1;rounded=0;entryX=0;entryY=0;entryDx=0;entryDy=0;strokeColor=#7F7F7F;" edge="1" parent="1" target="V7w_PPkg34LAz0NQ4yCN-4">
          <mxGeometry width="50" height="50" relative="1" as="geometry">
            <mxPoint y="140" as="sourcePoint" />
            <mxPoint x="50" y="90" as="targetPoint" />
          </mxGeometry>
        </mxCell>
        <mxCell id="V7w_PPkg34LAz0NQ4yCN-23" value="" style="endArrow=none;dashed=1;html=1;rounded=0;entryX=0;entryY=0;entryDx=0;entryDy=0;strokeColor=#7F7F7F;" edge="1" parent="1">
          <mxGeometry width="50" height="50" relative="1" as="geometry">
            <mxPoint y="339.31" as="sourcePoint" />
            <mxPoint x="40" y="339.31" as="targetPoint" />
          </mxGeometry>
        </mxCell>
        <mxCell id="V7w_PPkg34LAz0NQ4yCN-24" value="" style="endArrow=none;dashed=1;html=1;rounded=0;entryX=0;entryY=0;entryDx=0;entryDy=0;strokeColor=#7F7F7F;" edge="1" parent="1">
          <mxGeometry width="50" height="50" relative="1" as="geometry">
            <mxPoint x="40" y="180" as="sourcePoint" />
            <mxPoint x="80" y="180" as="targetPoint" />
          </mxGeometry>
        </mxCell>
        <mxCell id="V7w_PPkg34LAz0NQ4yCN-25" value="" style="endArrow=none;dashed=1;html=1;rounded=0;entryX=0;entryY=0;entryDx=0;entryDy=0;strokeColor=#7F7F7F;" edge="1" parent="1">
          <mxGeometry width="50" height="50" relative="1" as="geometry">
            <mxPoint x="40" y="299.31" as="sourcePoint" />
            <mxPoint x="80" y="299.31" as="targetPoint" />
          </mxGeometry>
        </mxCell>
        <mxCell id="V7w_PPkg34LAz0NQ4yCN-26" value="" style="endArrow=none;dashed=1;html=1;rounded=0;entryX=0;entryY=0;entryDx=0;entryDy=0;fontColor=#7F7F7F;strokeColor=#7F7F7F;" edge="1" parent="1">
          <mxGeometry width="50" height="50" relative="1" as="geometry">
            <mxPoint x="80" y="219.31" as="sourcePoint" />
            <mxPoint x="120" y="219.31" as="targetPoint" />
          </mxGeometry>
        </mxCell>
        <mxCell id="V7w_PPkg34LAz0NQ4yCN-27" value="" style="endArrow=none;dashed=1;html=1;rounded=0;entryX=0;entryY=0;entryDx=0;entryDy=0;fontColor=#7F7F7F;strokeColor=#7F7F7F;" edge="1" parent="1">
          <mxGeometry width="50" height="50" relative="1" as="geometry">
            <mxPoint x="80" y="260" as="sourcePoint" />
            <mxPoint x="120" y="260" as="targetPoint" />
          </mxGeometry>
        </mxCell>
        <mxCell id="V7w_PPkg34LAz0NQ4yCN-66" value="15" style="endArrow=classic;startArrow=classic;html=1;rounded=0;strokeColor=#7F7F7F;fontColor=#7F7F7F;" edge="1" parent="1">
          <mxGeometry width="50" height="50" relative="1" as="geometry">
            <mxPoint x="220" y="1080" as="sourcePoint" />
            <mxPoint x="220" y="480" as="targetPoint" />
          </mxGeometry>
        </mxCell>
        <mxCell id="V7w_PPkg34LAz0NQ4yCN-67" value="" style="endArrow=none;dashed=1;html=1;rounded=0;entryX=0;entryY=0;entryDx=0;entryDy=0;strokeColor=#7F7F7F;" edge="1" parent="1">
          <mxGeometry width="50" height="50" relative="1" as="geometry">
            <mxPoint x="200" y="480" as="sourcePoint" />
            <mxPoint x="240" y="480" as="targetPoint" />
          </mxGeometry>
        </mxCell>
        <mxCell id="V7w_PPkg34LAz0NQ4yCN-68" value="" style="endArrow=none;dashed=1;html=1;rounded=0;entryX=0;entryY=0;entryDx=0;entryDy=0;strokeColor=#7F7F7F;" edge="1" parent="1">
          <mxGeometry width="50" height="50" relative="1" as="geometry">
            <mxPoint x="200" y="1080" as="sourcePoint" />
            <mxPoint x="240" y="1080" as="targetPoint" />
          </mxGeometry>
        </mxCell>
        <mxCell id="V7w_PPkg34LAz0NQ4yCN-79" value="3x" style="shape=flexArrow;endArrow=classic;html=1;rounded=0;endWidth=36.908442330558856;endSize=8.16551724137931;width=34.48275862068966;" edge="1" parent="1">
          <mxGeometry width="50" height="50" relative="1" as="geometry">
            <mxPoint x="120" y="779.66" as="sourcePoint" />
            <mxPoint x="200" y="779.66" as="targetPoint" />
          </mxGeometry>
        </mxCell>
        <mxCell id="V7w_PPkg34LAz0NQ4yCN-80" value="5" style="endArrow=classic;startArrow=classic;html=1;rounded=0;strokeColor=#7F7F7F;fontColor=#7F7F7F;" edge="1" parent="1">
          <mxGeometry width="50" height="50" relative="1" as="geometry">
            <mxPoint x="-120" y="880" as="sourcePoint" />
            <mxPoint x="-120" y="680" as="targetPoint" />
          </mxGeometry>
        </mxCell>
        <mxCell id="V7w_PPkg34LAz0NQ4yCN-81" value="" style="endArrow=none;dashed=1;html=1;rounded=0;entryX=0;entryY=0;entryDx=0;entryDy=0;strokeColor=#7F7F7F;" edge="1" parent="1">
          <mxGeometry width="50" height="50" relative="1" as="geometry">
            <mxPoint x="-140" y="680" as="sourcePoint" />
            <mxPoint x="-100" y="680" as="targetPoint" />
          </mxGeometry>
        </mxCell>
        <mxCell id="V7w_PPkg34LAz0NQ4yCN-82" value="" style="endArrow=none;dashed=1;html=1;rounded=0;entryX=0;entryY=0;entryDx=0;entryDy=0;strokeColor=#7F7F7F;" edge="1" parent="1">
          <mxGeometry width="50" height="50" relative="1" as="geometry">
            <mxPoint x="-140" y="879.31" as="sourcePoint" />
            <mxPoint x="-100" y="879.31" as="targetPoint" />
          </mxGeometry>
        </mxCell>
        <mxCell id="V7w_PPkg34LAz0NQ4yCN-92" value="由这两个图可以推导出，位移需要逐级计算倍率，大小直接使用倍率乘积。倍率影响的是内部的大小，与其相对于外倍的偏移无关，参考图3。" style="text;strokeColor=none;fillColor=none;align=left;verticalAlign=middle;spacingLeft=4;spacingRight=4;overflow=hidden;points=[[0,0.5],[1,0.5]];portConstraint=eastwest;rotatable=0;whiteSpace=wrap;html=1;fontSize=20;" vertex="1" parent="1">
          <mxGeometry x="-120" y="410" width="270" height="130" as="geometry" />
        </mxCell>
        <mxCell id="V7w_PPkg34LAz0NQ4yCN-93" value="" style="group" vertex="1" connectable="0" parent="1">
          <mxGeometry x="-100" y="1320" width="200" height="200" as="geometry" />
        </mxCell>
        <mxCell id="V7w_PPkg34LAz0NQ4yCN-94" value="" style="whiteSpace=wrap;html=1;aspect=fixed;fillColor=none;container=0;" vertex="1" parent="V7w_PPkg34LAz0NQ4yCN-93">
          <mxGeometry width="200" height="200" as="geometry" />
        </mxCell>
        <mxCell id="V7w_PPkg34LAz0NQ4yCN-95" value="" style="whiteSpace=wrap;html=1;aspect=fixed;fillColor=none;container=0;" vertex="1" parent="V7w_PPkg34LAz0NQ4yCN-93">
          <mxGeometry x="40" y="40" width="120" height="120" as="geometry" />
        </mxCell>
        <mxCell id="V7w_PPkg34LAz0NQ4yCN-96" value="" style="whiteSpace=wrap;html=1;aspect=fixed;container=0;strokeColor=#FF0000;" vertex="1" parent="V7w_PPkg34LAz0NQ4yCN-93">
          <mxGeometry x="80" y="120" width="20" height="20" as="geometry" />
        </mxCell>
        <mxCell id="V7w_PPkg34LAz0NQ4yCN-97" value="1" style="endArrow=classic;startArrow=classic;html=1;rounded=0;exitX=0.5;exitY=0.6;exitDx=0;exitDy=0;exitPerimeter=0;strokeColor=#7F7F7F;fontColor=#7F7F7F;" edge="1" parent="V7w_PPkg34LAz0NQ4yCN-93">
          <mxGeometry width="50" height="50" relative="1" as="geometry">
            <mxPoint x="20" y="39.999999999999886" as="sourcePoint" />
            <mxPoint x="20" as="targetPoint" />
            <mxPoint as="offset" />
          </mxGeometry>
        </mxCell>
        <mxCell id="V7w_PPkg34LAz0NQ4yCN-98" value="3" style="endArrow=classic;startArrow=classic;html=1;rounded=0;strokeColor=#7F7F7F;fontColor=#7F7F7F;" edge="1" parent="V7w_PPkg34LAz0NQ4yCN-93">
          <mxGeometry width="50" height="50" relative="1" as="geometry">
            <mxPoint x="20" y="160" as="sourcePoint" />
            <mxPoint x="20" y="40" as="targetPoint" />
          </mxGeometry>
        </mxCell>
        <mxCell id="V7w_PPkg34LAz0NQ4yCN-99" value="1" style="endArrow=classic;startArrow=classic;html=1;rounded=0;exitX=0.5;exitY=0.6;exitDx=0;exitDy=0;exitPerimeter=0;strokeColor=#7F7F7F;fontColor=#7F7F7F;" edge="1" parent="V7w_PPkg34LAz0NQ4yCN-93">
          <mxGeometry width="50" height="50" relative="1" as="geometry">
            <mxPoint x="20" y="199.9999999999999" as="sourcePoint" />
            <mxPoint x="20" y="160" as="targetPoint" />
            <mxPoint as="offset" />
          </mxGeometry>
        </mxCell>
        <mxCell id="V7w_PPkg34LAz0NQ4yCN-100" value="" style="endArrow=none;dashed=1;html=1;rounded=0;entryX=0;entryY=0;entryDx=0;entryDy=0;strokeColor=#7F7F7F;" edge="1" parent="V7w_PPkg34LAz0NQ4yCN-93">
          <mxGeometry width="50" height="50" relative="1" as="geometry">
            <mxPoint y="40" as="sourcePoint" />
            <mxPoint x="40" y="40" as="targetPoint" />
          </mxGeometry>
        </mxCell>
        <mxCell id="V7w_PPkg34LAz0NQ4yCN-101" value="" style="endArrow=none;dashed=1;html=1;rounded=0;entryX=0;entryY=0;entryDx=0;entryDy=0;strokeColor=#7F7F7F;" edge="1" parent="V7w_PPkg34LAz0NQ4yCN-93">
          <mxGeometry width="50" height="50" relative="1" as="geometry">
            <mxPoint y="159.30999999999995" as="sourcePoint" />
            <mxPoint x="40" y="159.30999999999995" as="targetPoint" />
          </mxGeometry>
        </mxCell>
        <mxCell id="V7w_PPkg34LAz0NQ4yCN-102" value="2" style="endArrow=classic;startArrow=classic;html=1;rounded=0;fontColor=#7F7F7F;strokeColor=#7F7F7F;" edge="1" parent="V7w_PPkg34LAz0NQ4yCN-93">
          <mxGeometry width="50" height="50" relative="1" as="geometry">
            <mxPoint x="60" y="120" as="sourcePoint" />
            <mxPoint x="60" y="40" as="targetPoint" />
            <mxPoint as="offset" />
          </mxGeometry>
        </mxCell>
        <mxCell id="V7w_PPkg34LAz0NQ4yCN-103" value="0.5" style="endArrow=classic;startArrow=classic;html=1;rounded=0;fontColor=#7F7F7F;strokeColor=#7F7F7F;" edge="1" parent="V7w_PPkg34LAz0NQ4yCN-93">
          <mxGeometry width="50" height="50" relative="1" as="geometry">
            <mxPoint x="60" y="140" as="sourcePoint" />
            <mxPoint x="60" y="120" as="targetPoint" />
            <mxPoint as="offset" />
          </mxGeometry>
        </mxCell>
        <mxCell id="V7w_PPkg34LAz0NQ4yCN-104" value="" style="endArrow=none;dashed=1;html=1;rounded=0;entryX=0;entryY=0;entryDx=0;entryDy=0;fontColor=#7F7F7F;strokeColor=#7F7F7F;" edge="1" parent="V7w_PPkg34LAz0NQ4yCN-93">
          <mxGeometry width="50" height="50" relative="1" as="geometry">
            <mxPoint x="40" y="120" as="sourcePoint" />
            <mxPoint x="80" y="120" as="targetPoint" />
          </mxGeometry>
        </mxCell>
        <mxCell id="V7w_PPkg34LAz0NQ4yCN-140" value="" style="endArrow=none;dashed=1;html=1;rounded=0;entryX=0;entryY=0;entryDx=0;entryDy=0;fontColor=#7F7F7F;strokeColor=#7F7F7F;" edge="1" parent="V7w_PPkg34LAz0NQ4yCN-93">
          <mxGeometry width="50" height="50" relative="1" as="geometry">
            <mxPoint x="40" y="140" as="sourcePoint" />
            <mxPoint x="80" y="140" as="targetPoint" />
          </mxGeometry>
        </mxCell>
        <mxCell id="V7w_PPkg34LAz0NQ4yCN-141" value="0.5" style="endArrow=classic;startArrow=classic;html=1;rounded=0;exitX=0.5;exitY=0.6;exitDx=0;exitDy=0;exitPerimeter=0;fontColor=#7F7F7F;strokeColor=#7F7F7F;" edge="1" parent="V7w_PPkg34LAz0NQ4yCN-93">
          <mxGeometry width="50" height="50" relative="1" as="geometry">
            <mxPoint x="60" y="160" as="sourcePoint" />
            <mxPoint x="60" y="140" as="targetPoint" />
            <mxPoint as="offset" />
          </mxGeometry>
        </mxCell>
        <mxCell id="V7w_PPkg34LAz0NQ4yCN-142" value="" style="endArrow=none;dashed=1;html=1;rounded=0;entryX=0;entryY=0;entryDx=0;entryDy=0;fontColor=#7F7F7F;strokeColor=#7F7F7F;exitX=0.329;exitY=0.004;exitDx=0;exitDy=0;exitPerimeter=0;" edge="1" parent="V7w_PPkg34LAz0NQ4yCN-93" source="V7w_PPkg34LAz0NQ4yCN-95" target="V7w_PPkg34LAz0NQ4yCN-96">
          <mxGeometry width="50" height="50" relative="1" as="geometry">
            <mxPoint x="70" y="90" as="sourcePoint" />
            <mxPoint x="110" y="90" as="targetPoint" />
          </mxGeometry>
        </mxCell>
        <mxCell id="V7w_PPkg34LAz0NQ4yCN-156" value="(1, 1)" style="text;strokeColor=none;fillColor=none;align=left;verticalAlign=middle;spacingLeft=4;spacingRight=4;overflow=hidden;points=[[0,0.5],[1,0.5]];portConstraint=eastwest;rotatable=0;whiteSpace=wrap;html=1;fontSize=12;" vertex="1" parent="V7w_PPkg34LAz0NQ4yCN-93">
          <mxGeometry x="20" y="20" width="50" height="20" as="geometry" />
        </mxCell>
        <mxCell id="V7w_PPkg34LAz0NQ4yCN-158" value="(2, 3)" style="text;strokeColor=none;fillColor=none;align=left;verticalAlign=middle;spacingLeft=4;spacingRight=4;overflow=hidden;points=[[0,0.5],[1,0.5]];portConstraint=eastwest;rotatable=0;whiteSpace=wrap;html=1;fontSize=12;" vertex="1" parent="V7w_PPkg34LAz0NQ4yCN-93">
          <mxGeometry x="60" y="100" width="50" height="20" as="geometry" />
        </mxCell>
        <mxCell id="V7w_PPkg34LAz0NQ4yCN-178" value="(1, 1)" style="text;strokeColor=none;fillColor=none;align=left;verticalAlign=middle;spacingLeft=4;spacingRight=4;overflow=hidden;points=[[0,0.5],[1,0.5]];portConstraint=eastwest;rotatable=0;whiteSpace=wrap;html=1;fontSize=12;" vertex="1" parent="V7w_PPkg34LAz0NQ4yCN-93">
          <mxGeometry x="20" width="50" height="20" as="geometry" />
        </mxCell>
        <mxCell id="V7w_PPkg34LAz0NQ4yCN-179" value="(1, 2)" style="text;strokeColor=none;fillColor=none;align=left;verticalAlign=middle;spacingLeft=4;spacingRight=4;overflow=hidden;points=[[0,0.5],[1,0.5]];portConstraint=eastwest;rotatable=0;whiteSpace=wrap;html=1;fontSize=12;" vertex="1" parent="V7w_PPkg34LAz0NQ4yCN-93">
          <mxGeometry x="60" y="80" width="50" height="20" as="geometry" />
        </mxCell>
        <mxCell id="V7w_PPkg34LAz0NQ4yCN-105" value="" style="group" vertex="1" connectable="0" parent="1">
          <mxGeometry x="600" y="1120" width="600" height="600" as="geometry" />
        </mxCell>
        <mxCell id="V7w_PPkg34LAz0NQ4yCN-106" value="" style="whiteSpace=wrap;html=1;aspect=fixed;fillColor=none;container=0;" vertex="1" parent="V7w_PPkg34LAz0NQ4yCN-105">
          <mxGeometry width="600" height="600" as="geometry" />
        </mxCell>
        <mxCell id="V7w_PPkg34LAz0NQ4yCN-107" value="" style="whiteSpace=wrap;html=1;aspect=fixed;fillColor=none;container=0;" vertex="1" parent="V7w_PPkg34LAz0NQ4yCN-105">
          <mxGeometry x="120" y="120" width="360" height="360" as="geometry" />
        </mxCell>
        <mxCell id="V7w_PPkg34LAz0NQ4yCN-108" value="" style="whiteSpace=wrap;html=1;aspect=fixed;container=0;strokeColor=#FF0000;" vertex="1" parent="V7w_PPkg34LAz0NQ4yCN-105">
          <mxGeometry x="240" y="360" width="120" height="120" as="geometry" />
        </mxCell>
        <mxCell id="V7w_PPkg34LAz0NQ4yCN-109" value="" style="endArrow=none;dashed=1;html=1;rounded=0;entryX=0;entryY=0;entryDx=0;entryDy=0;strokeColor=#7F7F7F;" edge="1" parent="V7w_PPkg34LAz0NQ4yCN-105">
          <mxGeometry width="50" height="50" relative="1" as="geometry">
            <mxPoint x="40" y="120" as="sourcePoint" />
            <mxPoint x="80" y="120" as="targetPoint" />
          </mxGeometry>
        </mxCell>
        <mxCell id="V7w_PPkg34LAz0NQ4yCN-110" value="3" style="endArrow=classic;startArrow=classic;html=1;rounded=0;strokeColor=#7F7F7F;fontColor=#7F7F7F;" edge="1" parent="V7w_PPkg34LAz0NQ4yCN-105">
          <mxGeometry width="50" height="50" relative="1" as="geometry">
            <mxPoint x="60" y="120" as="sourcePoint" />
            <mxPoint x="60" as="targetPoint" />
          </mxGeometry>
        </mxCell>
        <mxCell id="V7w_PPkg34LAz0NQ4yCN-111" value="" style="endArrow=none;dashed=1;html=1;rounded=0;entryX=0;entryY=0;entryDx=0;entryDy=0;strokeColor=#7F7F7F;" edge="1" parent="V7w_PPkg34LAz0NQ4yCN-105">
          <mxGeometry width="50" height="50" relative="1" as="geometry">
            <mxPoint x="40" y="480" as="sourcePoint" />
            <mxPoint x="80" y="480" as="targetPoint" />
          </mxGeometry>
        </mxCell>
        <mxCell id="V7w_PPkg34LAz0NQ4yCN-112" value="3" style="endArrow=classic;startArrow=classic;html=1;rounded=0;strokeColor=#7F7F7F;fontColor=#7F7F7F;" edge="1" parent="V7w_PPkg34LAz0NQ4yCN-105">
          <mxGeometry width="50" height="50" relative="1" as="geometry">
            <mxPoint x="60" y="600" as="sourcePoint" />
            <mxPoint x="60" y="480" as="targetPoint" />
          </mxGeometry>
        </mxCell>
        <mxCell id="V7w_PPkg34LAz0NQ4yCN-113" value="9" style="endArrow=classic;startArrow=classic;html=1;rounded=0;strokeColor=#7F7F7F;fontColor=#7F7F7F;" edge="1" parent="V7w_PPkg34LAz0NQ4yCN-105">
          <mxGeometry width="50" height="50" relative="1" as="geometry">
            <mxPoint x="60" y="480" as="sourcePoint" />
            <mxPoint x="60" y="120" as="targetPoint" />
          </mxGeometry>
        </mxCell>
        <mxCell id="V7w_PPkg34LAz0NQ4yCN-114" value="6" style="endArrow=classic;startArrow=classic;html=1;rounded=0;fontColor=#7F7F7F;strokeColor=#7F7F7F;exitX=0.278;exitY=0.667;exitDx=0;exitDy=0;exitPerimeter=0;" edge="1" parent="V7w_PPkg34LAz0NQ4yCN-105">
          <mxGeometry width="50" height="50" relative="1" as="geometry">
            <mxPoint x="200.07999999999993" y="360.1199999999999" as="sourcePoint" />
            <mxPoint x="200" y="120" as="targetPoint" />
            <mxPoint as="offset" />
          </mxGeometry>
        </mxCell>
        <mxCell id="V7w_PPkg34LAz0NQ4yCN-115" value="" style="endArrow=none;dashed=1;html=1;rounded=0;entryX=0;entryY=0;entryDx=0;entryDy=0;strokeColor=#7F7F7F;" edge="1" parent="V7w_PPkg34LAz0NQ4yCN-105">
          <mxGeometry width="50" height="50" relative="1" as="geometry">
            <mxPoint x="180" y="360" as="sourcePoint" />
            <mxPoint x="220" y="360" as="targetPoint" />
          </mxGeometry>
        </mxCell>
        <mxCell id="V7w_PPkg34LAz0NQ4yCN-116" value="3" style="endArrow=classic;startArrow=classic;html=1;rounded=0;strokeColor=#7F7F7F;fontColor=#7F7F7F;" edge="1" parent="V7w_PPkg34LAz0NQ4yCN-105">
          <mxGeometry width="50" height="50" relative="1" as="geometry">
            <mxPoint x="200" y="480" as="sourcePoint" />
            <mxPoint x="200" y="360" as="targetPoint" />
          </mxGeometry>
        </mxCell>
        <mxCell id="V7w_PPkg34LAz0NQ4yCN-164" value="(3, 3)=上面的相对坐标+parent的绝对坐标" style="text;strokeColor=none;fillColor=none;align=left;verticalAlign=middle;spacingLeft=4;spacingRight=4;overflow=hidden;points=[[0,0.5],[1,0.5]];portConstraint=eastwest;rotatable=0;whiteSpace=wrap;html=1;fontSize=12;" vertex="1" parent="V7w_PPkg34LAz0NQ4yCN-105">
          <mxGeometry x="100" y="100" width="310" height="20" as="geometry" />
        </mxCell>
        <mxCell id="V7w_PPkg34LAz0NQ4yCN-165" value="(6, 9)=上面的相对坐标+parent的绝对坐标" style="text;strokeColor=none;fillColor=none;align=left;verticalAlign=middle;spacingLeft=4;spacingRight=4;overflow=hidden;points=[[0,0.5],[1,0.5]];portConstraint=eastwest;rotatable=0;whiteSpace=wrap;html=1;fontSize=12;" vertex="1" parent="V7w_PPkg34LAz0NQ4yCN-105">
          <mxGeometry x="220" y="340" width="300" height="20" as="geometry" />
        </mxCell>
        <mxCell id="V7w_PPkg34LAz0NQ4yCN-169" value="(3, 3)=原相对坐标(1, 1) * (this.xxScale, this.yyScale)" style="text;strokeColor=none;fillColor=none;align=left;verticalAlign=middle;spacingLeft=4;spacingRight=4;overflow=hidden;points=[[0,0.5],[1,0.5]];portConstraint=eastwest;rotatable=0;whiteSpace=wrap;html=1;fontSize=12;" vertex="1" parent="V7w_PPkg34LAz0NQ4yCN-105">
          <mxGeometry x="100" y="80" width="290" height="20" as="geometry" />
        </mxCell>
        <mxCell id="V7w_PPkg34LAz0NQ4yCN-172" value="(3, 6)=原相对坐标(1,2)*(parent.xxScale,parent.yyScale)" style="text;strokeColor=none;fillColor=none;align=left;verticalAlign=middle;spacingLeft=4;spacingRight=4;overflow=hidden;points=[[0,0.5],[1,0.5]];portConstraint=eastwest;rotatable=0;whiteSpace=wrap;html=1;fontSize=12;" vertex="1" parent="V7w_PPkg34LAz0NQ4yCN-105">
          <mxGeometry x="220" y="320" width="310" height="20" as="geometry" />
        </mxCell>
        <mxCell id="V7w_PPkg34LAz0NQ4yCN-117" value="15" style="endArrow=classic;startArrow=classic;html=1;rounded=0;strokeColor=#7F7F7F;fontColor=#7F7F7F;" edge="1" parent="1">
          <mxGeometry width="50" height="50" relative="1" as="geometry">
            <mxPoint x="580" y="1720" as="sourcePoint" />
            <mxPoint x="580" y="1120" as="targetPoint" />
          </mxGeometry>
        </mxCell>
        <mxCell id="V7w_PPkg34LAz0NQ4yCN-118" value="" style="endArrow=none;dashed=1;html=1;rounded=0;entryX=0;entryY=0;entryDx=0;entryDy=0;strokeColor=#7F7F7F;" edge="1" parent="1">
          <mxGeometry width="50" height="50" relative="1" as="geometry">
            <mxPoint x="560" y="1120" as="sourcePoint" />
            <mxPoint x="600" y="1120" as="targetPoint" />
          </mxGeometry>
        </mxCell>
        <mxCell id="V7w_PPkg34LAz0NQ4yCN-119" value="" style="endArrow=none;dashed=1;html=1;rounded=0;entryX=0;entryY=0;entryDx=0;entryDy=0;strokeColor=#7F7F7F;" edge="1" parent="1">
          <mxGeometry width="50" height="50" relative="1" as="geometry">
            <mxPoint x="560" y="1720" as="sourcePoint" />
            <mxPoint x="600" y="1720" as="targetPoint" />
          </mxGeometry>
        </mxCell>
        <mxCell id="V7w_PPkg34LAz0NQ4yCN-120" value="最内部2x" style="shape=flexArrow;endArrow=classic;html=1;rounded=0;endWidth=36.908442330558856;endSize=8.16551724137931;width=34.48275862068966;" edge="1" parent="1">
          <mxGeometry width="50" height="50" relative="1" as="geometry">
            <mxPoint x="120" y="1419.6599999999999" as="sourcePoint" />
            <mxPoint x="200" y="1419.6599999999999" as="targetPoint" />
          </mxGeometry>
        </mxCell>
        <mxCell id="V7w_PPkg34LAz0NQ4yCN-121" value="5" style="endArrow=classic;startArrow=classic;html=1;rounded=0;strokeColor=#7F7F7F;fontColor=#7F7F7F;" edge="1" parent="1">
          <mxGeometry width="50" height="50" relative="1" as="geometry">
            <mxPoint x="-120" y="1520" as="sourcePoint" />
            <mxPoint x="-120" y="1320" as="targetPoint" />
          </mxGeometry>
        </mxCell>
        <mxCell id="V7w_PPkg34LAz0NQ4yCN-122" value="" style="endArrow=none;dashed=1;html=1;rounded=0;entryX=0;entryY=0;entryDx=0;entryDy=0;strokeColor=#7F7F7F;" edge="1" parent="1">
          <mxGeometry width="50" height="50" relative="1" as="geometry">
            <mxPoint x="-140" y="1320" as="sourcePoint" />
            <mxPoint x="-100" y="1320" as="targetPoint" />
          </mxGeometry>
        </mxCell>
        <mxCell id="V7w_PPkg34LAz0NQ4yCN-123" value="" style="endArrow=none;dashed=1;html=1;rounded=0;entryX=0;entryY=0;entryDx=0;entryDy=0;strokeColor=#7F7F7F;" edge="1" parent="1">
          <mxGeometry width="50" height="50" relative="1" as="geometry">
            <mxPoint x="-140" y="1519.31" as="sourcePoint" />
            <mxPoint x="-100" y="1519.31" as="targetPoint" />
          </mxGeometry>
        </mxCell>
        <mxCell id="V7w_PPkg34LAz0NQ4yCN-124" value="整体3x" style="shape=flexArrow;endArrow=classic;html=1;rounded=0;endWidth=36.908442330558856;endSize=8.16551724137931;width=34.48275862068966;" edge="1" parent="1">
          <mxGeometry width="50" height="50" relative="1" as="geometry">
            <mxPoint x="460" y="1419.71" as="sourcePoint" />
            <mxPoint x="540" y="1419.71" as="targetPoint" />
          </mxGeometry>
        </mxCell>
        <mxCell id="V7w_PPkg34LAz0NQ4yCN-125" value="" style="group" vertex="1" connectable="0" parent="1">
          <mxGeometry x="240" y="1319.86" width="200" height="200" as="geometry" />
        </mxCell>
        <mxCell id="V7w_PPkg34LAz0NQ4yCN-126" value="" style="whiteSpace=wrap;html=1;aspect=fixed;fillColor=none;container=0;" vertex="1" parent="V7w_PPkg34LAz0NQ4yCN-125">
          <mxGeometry width="200" height="200" as="geometry" />
        </mxCell>
        <mxCell id="V7w_PPkg34LAz0NQ4yCN-127" value="" style="whiteSpace=wrap;html=1;aspect=fixed;fillColor=none;container=0;" vertex="1" parent="V7w_PPkg34LAz0NQ4yCN-125">
          <mxGeometry x="40" y="40" width="120" height="120" as="geometry" />
        </mxCell>
        <mxCell id="V7w_PPkg34LAz0NQ4yCN-128" value="" style="whiteSpace=wrap;html=1;aspect=fixed;container=0;strokeColor=#FF0000;" vertex="1" parent="V7w_PPkg34LAz0NQ4yCN-125">
          <mxGeometry x="80" y="120" width="40" height="40" as="geometry" />
        </mxCell>
        <mxCell id="V7w_PPkg34LAz0NQ4yCN-129" value="1" style="endArrow=classic;startArrow=classic;html=1;rounded=0;exitX=0.5;exitY=0.6;exitDx=0;exitDy=0;exitPerimeter=0;strokeColor=#7F7F7F;fontColor=#7F7F7F;" edge="1" parent="V7w_PPkg34LAz0NQ4yCN-125">
          <mxGeometry width="50" height="50" relative="1" as="geometry">
            <mxPoint x="20" y="39.999999999999886" as="sourcePoint" />
            <mxPoint x="20" as="targetPoint" />
            <mxPoint as="offset" />
          </mxGeometry>
        </mxCell>
        <mxCell id="V7w_PPkg34LAz0NQ4yCN-130" value="3" style="endArrow=classic;startArrow=classic;html=1;rounded=0;strokeColor=#7F7F7F;fontColor=#7F7F7F;" edge="1" parent="V7w_PPkg34LAz0NQ4yCN-125">
          <mxGeometry width="50" height="50" relative="1" as="geometry">
            <mxPoint x="20" y="160" as="sourcePoint" />
            <mxPoint x="20" y="40" as="targetPoint" />
          </mxGeometry>
        </mxCell>
        <mxCell id="V7w_PPkg34LAz0NQ4yCN-131" value="1" style="endArrow=classic;startArrow=classic;html=1;rounded=0;exitX=0.5;exitY=0.6;exitDx=0;exitDy=0;exitPerimeter=0;strokeColor=#7F7F7F;fontColor=#7F7F7F;" edge="1" parent="V7w_PPkg34LAz0NQ4yCN-125">
          <mxGeometry width="50" height="50" relative="1" as="geometry">
            <mxPoint x="20" y="199.9999999999999" as="sourcePoint" />
            <mxPoint x="20" y="160" as="targetPoint" />
            <mxPoint as="offset" />
          </mxGeometry>
        </mxCell>
        <mxCell id="V7w_PPkg34LAz0NQ4yCN-132" value="" style="endArrow=none;dashed=1;html=1;rounded=0;entryX=0;entryY=0;entryDx=0;entryDy=0;strokeColor=#7F7F7F;" edge="1" parent="V7w_PPkg34LAz0NQ4yCN-125">
          <mxGeometry width="50" height="50" relative="1" as="geometry">
            <mxPoint y="40" as="sourcePoint" />
            <mxPoint x="40" y="40" as="targetPoint" />
          </mxGeometry>
        </mxCell>
        <mxCell id="V7w_PPkg34LAz0NQ4yCN-133" value="" style="endArrow=none;dashed=1;html=1;rounded=0;entryX=0;entryY=0;entryDx=0;entryDy=0;strokeColor=#7F7F7F;" edge="1" parent="V7w_PPkg34LAz0NQ4yCN-125">
          <mxGeometry width="50" height="50" relative="1" as="geometry">
            <mxPoint y="159.30999999999995" as="sourcePoint" />
            <mxPoint x="40" y="159.30999999999995" as="targetPoint" />
          </mxGeometry>
        </mxCell>
        <mxCell id="V7w_PPkg34LAz0NQ4yCN-135" value="1" style="endArrow=classic;startArrow=classic;html=1;rounded=0;exitX=0.5;exitY=0.6;exitDx=0;exitDy=0;exitPerimeter=0;fontColor=#7F7F7F;strokeColor=#7F7F7F;" edge="1" parent="V7w_PPkg34LAz0NQ4yCN-125">
          <mxGeometry width="50" height="50" relative="1" as="geometry">
            <mxPoint x="60" y="159.9999999999999" as="sourcePoint" />
            <mxPoint x="60" y="120" as="targetPoint" />
            <mxPoint as="offset" />
          </mxGeometry>
        </mxCell>
        <mxCell id="V7w_PPkg34LAz0NQ4yCN-136" value="" style="endArrow=none;dashed=1;html=1;rounded=0;entryX=0;entryY=0;entryDx=0;entryDy=0;fontColor=#7F7F7F;strokeColor=#7F7F7F;" edge="1" parent="V7w_PPkg34LAz0NQ4yCN-125">
          <mxGeometry width="50" height="50" relative="1" as="geometry">
            <mxPoint x="40" y="120" as="sourcePoint" />
            <mxPoint x="80" y="120" as="targetPoint" />
          </mxGeometry>
        </mxCell>
        <mxCell id="V7w_PPkg34LAz0NQ4yCN-149" value="2" style="endArrow=classic;startArrow=classic;html=1;rounded=0;fontColor=#7F7F7F;strokeColor=#7F7F7F;" edge="1" parent="V7w_PPkg34LAz0NQ4yCN-125">
          <mxGeometry width="50" height="50" relative="1" as="geometry">
            <mxPoint x="60" y="120.1400000000001" as="sourcePoint" />
            <mxPoint x="59.879999999999995" y="40" as="targetPoint" />
            <mxPoint as="offset" />
          </mxGeometry>
        </mxCell>
        <mxCell id="V7w_PPkg34LAz0NQ4yCN-150" value="1" style="endArrow=classic;startArrow=classic;html=1;rounded=0;exitX=0.001;exitY=0.168;exitDx=0;exitDy=0;exitPerimeter=0;strokeColor=#7F7F7F;fontColor=#7F7F7F;" edge="1" parent="V7w_PPkg34LAz0NQ4yCN-125">
          <mxGeometry width="50" height="50" relative="1" as="geometry">
            <mxPoint x="39.879999999999995" y="60" as="sourcePoint" />
            <mxPoint x="79.88" y="60" as="targetPoint" />
          </mxGeometry>
        </mxCell>
        <mxCell id="V7w_PPkg34LAz0NQ4yCN-151" value="" style="endArrow=none;dashed=1;html=1;rounded=0;fontColor=#7F7F7F;strokeColor=#7F7F7F;exitX=0.329;exitY=0.004;exitDx=0;exitDy=0;exitPerimeter=0;" edge="1" parent="V7w_PPkg34LAz0NQ4yCN-125">
          <mxGeometry width="50" height="50" relative="1" as="geometry">
            <mxPoint x="78.88" y="40" as="sourcePoint" />
            <mxPoint x="80" y="120.1400000000001" as="targetPoint" />
          </mxGeometry>
        </mxCell>
        <mxCell id="V7w_PPkg34LAz0NQ4yCN-162" value="(1, 1)" style="text;strokeColor=none;fillColor=none;align=left;verticalAlign=middle;spacingLeft=4;spacingRight=4;overflow=hidden;points=[[0,0.5],[1,0.5]];portConstraint=eastwest;rotatable=0;whiteSpace=wrap;html=1;fontSize=12;" vertex="1" parent="V7w_PPkg34LAz0NQ4yCN-125">
          <mxGeometry x="20" y="20" width="50" height="20" as="geometry" />
        </mxCell>
        <mxCell id="V7w_PPkg34LAz0NQ4yCN-163" value="(2, 3)" style="text;strokeColor=none;fillColor=none;align=left;verticalAlign=middle;spacingLeft=4;spacingRight=4;overflow=hidden;points=[[0,0.5],[1,0.5]];portConstraint=eastwest;rotatable=0;whiteSpace=wrap;html=1;fontSize=12;" vertex="1" parent="V7w_PPkg34LAz0NQ4yCN-125">
          <mxGeometry x="60" y="100.00000000000023" width="50" height="20" as="geometry" />
        </mxCell>
        <mxCell id="V7w_PPkg34LAz0NQ4yCN-177" value="(1, 1)" style="text;strokeColor=none;fillColor=none;align=left;verticalAlign=middle;spacingLeft=4;spacingRight=4;overflow=hidden;points=[[0,0.5],[1,0.5]];portConstraint=eastwest;rotatable=0;whiteSpace=wrap;html=1;fontSize=12;" vertex="1" parent="V7w_PPkg34LAz0NQ4yCN-125">
          <mxGeometry x="20" width="50" height="20" as="geometry" />
        </mxCell>
        <mxCell id="V7w_PPkg34LAz0NQ4yCN-180" value="(1, 2)" style="text;strokeColor=none;fillColor=none;align=left;verticalAlign=middle;spacingLeft=4;spacingRight=4;overflow=hidden;points=[[0,0.5],[1,0.5]];portConstraint=eastwest;rotatable=0;whiteSpace=wrap;html=1;fontSize=12;" vertex="1" parent="V7w_PPkg34LAz0NQ4yCN-125">
          <mxGeometry x="60" y="80.00000000000023" width="50" height="20" as="geometry" />
        </mxCell>
        <mxCell id="V7w_PPkg34LAz0NQ4yCN-137" value="5" style="endArrow=classic;startArrow=classic;html=1;rounded=0;strokeColor=#7F7F7F;fontColor=#7F7F7F;" edge="1" parent="1">
          <mxGeometry width="50" height="50" relative="1" as="geometry">
            <mxPoint x="220" y="1519.86" as="sourcePoint" />
            <mxPoint x="220" y="1319.86" as="targetPoint" />
          </mxGeometry>
        </mxCell>
        <mxCell id="V7w_PPkg34LAz0NQ4yCN-138" value="" style="endArrow=none;dashed=1;html=1;rounded=0;entryX=0;entryY=0;entryDx=0;entryDy=0;strokeColor=#7F7F7F;" edge="1" parent="1">
          <mxGeometry width="50" height="50" relative="1" as="geometry">
            <mxPoint x="200" y="1319.86" as="sourcePoint" />
            <mxPoint x="240" y="1319.86" as="targetPoint" />
          </mxGeometry>
        </mxCell>
        <mxCell id="V7w_PPkg34LAz0NQ4yCN-139" value="" style="endArrow=none;dashed=1;html=1;rounded=0;entryX=0;entryY=0;entryDx=0;entryDy=0;strokeColor=#7F7F7F;" edge="1" parent="1">
          <mxGeometry width="50" height="50" relative="1" as="geometry">
            <mxPoint x="200" y="1519.1699999999998" as="sourcePoint" />
            <mxPoint x="240" y="1519.1699999999998" as="targetPoint" />
          </mxGeometry>
        </mxCell>
        <mxCell id="V7w_PPkg34LAz0NQ4yCN-143" value="1" style="endArrow=classic;startArrow=classic;html=1;rounded=0;exitX=0.001;exitY=0.168;exitDx=0;exitDy=0;exitPerimeter=0;strokeColor=#7F7F7F;fontColor=#7F7F7F;" edge="1" parent="1" source="V7w_PPkg34LAz0NQ4yCN-95">
          <mxGeometry width="50" height="50" relative="1" as="geometry">
            <mxPoint x="-50" y="1450" as="sourcePoint" />
            <mxPoint x="-20" y="1380" as="targetPoint" />
          </mxGeometry>
        </mxCell>
        <mxCell id="V7w_PPkg34LAz0NQ4yCN-153" value="&lt;h1 style=&quot;margin-top: 0px;&quot;&gt;计算公式&lt;/h1&gt;&lt;p&gt;this.xxScale(控件的实际倍率) = parent.xxScale(父控件的实际倍率) * this.xScale(控件自己的倍率)&lt;/p&gt;&lt;p&gt;this.yyScale(控件的实际倍率) = parent.yyScale(父控件的实际倍率) * this.yScale(控件自己的倍率)&lt;/p&gt;&lt;p&gt;this.drawRect.left = parent.drawRect.left + this.rect.left * parent.xxScale&lt;/p&gt;&lt;p&gt;this.drawRect.top = parent.drawRect.top + this.rect.top * parent.yyScale&lt;/p&gt;&lt;p&gt;this.drawRect.width = this.rect.width * this.xxScale&lt;/p&gt;&lt;p&gt;this.drawRect.height = this.rect.height * this.yyScale&lt;/p&gt;" style="text;html=1;whiteSpace=wrap;overflow=hidden;rounded=0;" vertex="1" parent="1">
          <mxGeometry x="-10" y="1560" width="580" height="220" as="geometry" />
        </mxCell>
        <mxCell id="V7w_PPkg34LAz0NQ4yCN-157" value="绝对坐标(0, 0)" style="text;strokeColor=none;fillColor=none;align=left;verticalAlign=middle;spacingLeft=4;spacingRight=4;overflow=hidden;points=[[0,0.5],[1,0.5]];portConstraint=eastwest;rotatable=0;whiteSpace=wrap;html=1;fontSize=12;" vertex="1" parent="1">
          <mxGeometry x="530" y="1100" width="100" height="20" as="geometry" />
        </mxCell>
        <mxCell id="V7w_PPkg34LAz0NQ4yCN-166" value="相对坐标(0, 0)" style="text;strokeColor=none;fillColor=none;align=left;verticalAlign=middle;spacingLeft=4;spacingRight=4;overflow=hidden;points=[[0,0.5],[1,0.5]];portConstraint=eastwest;rotatable=0;whiteSpace=wrap;html=1;fontSize=12;" vertex="1" parent="1">
          <mxGeometry x="530" y="1080" width="100" height="20" as="geometry" />
        </mxCell>
        <mxCell id="V7w_PPkg34LAz0NQ4yCN-173" value="相对坐标(0, 0)" style="text;strokeColor=none;fillColor=none;align=left;verticalAlign=middle;spacingLeft=4;spacingRight=4;overflow=hidden;points=[[0,0.5],[1,0.5]];portConstraint=eastwest;rotatable=0;whiteSpace=wrap;html=1;fontSize=12;" vertex="1" parent="1">
          <mxGeometry x="-170" y="1279.86" width="100" height="20" as="geometry" />
        </mxCell>
        <mxCell id="V7w_PPkg34LAz0NQ4yCN-174" value="绝对坐标(0, 0)" style="text;strokeColor=none;fillColor=none;align=left;verticalAlign=middle;spacingLeft=4;spacingRight=4;overflow=hidden;points=[[0,0.5],[1,0.5]];portConstraint=eastwest;rotatable=0;whiteSpace=wrap;html=1;fontSize=12;" vertex="1" parent="1">
          <mxGeometry x="-170" y="1299.86" width="100" height="20" as="geometry" />
        </mxCell>
        <mxCell id="V7w_PPkg34LAz0NQ4yCN-175" value="相对坐标(0, 0)" style="text;strokeColor=none;fillColor=none;align=left;verticalAlign=middle;spacingLeft=4;spacingRight=4;overflow=hidden;points=[[0,0.5],[1,0.5]];portConstraint=eastwest;rotatable=0;whiteSpace=wrap;html=1;fontSize=12;" vertex="1" parent="1">
          <mxGeometry x="170" y="1279.86" width="100" height="20" as="geometry" />
        </mxCell>
        <mxCell id="V7w_PPkg34LAz0NQ4yCN-176" value="绝对坐标(0, 0)" style="text;strokeColor=none;fillColor=none;align=left;verticalAlign=middle;spacingLeft=4;spacingRight=4;overflow=hidden;points=[[0,0.5],[1,0.5]];portConstraint=eastwest;rotatable=0;whiteSpace=wrap;html=1;fontSize=12;" vertex="1" parent="1">
          <mxGeometry x="170" y="1299.86" width="100" height="20" as="geometry" />
        </mxCell>
      </root>
    </mxGraphModel>
  </diagram>
</mxfile>
